HIERARCHY
ROOT root
{
	OFFSET	0	13.1	24.9
	CHANNELS 6  Xposition Yposition Zposition Xrotation Yrotation Zrotation
	JOINT spine_1
	{
		OFFSET	0	9.99999	0
		CHANNELS 3  Xrotation Yrotation Zrotation
		JOINT spine_2
		{
			OFFSET	0	112	-10
			CHANNELS 3  Xrotation Yrotation Zrotation
			JOINT spine_3
			{
				OFFSET	0	206.5	19.3
				CHANNELS 3  Xrotation Yrotation Zrotation
				JOINT spine_4
				{
					OFFSET	0	110.4	14.6
					CHANNELS 3  Xrotation Yrotation Zrotation
					JOINT neck_1
					{
						OFFSET	0	71.8	-50.3
						CHANNELS 3  Xrotation Yrotation Zrotation
						JOINT neck_2
						{
							OFFSET	0	86.2	-25.8
							CHANNELS 3  Xrotation Yrotation Zrotation
							JOINT head_ee
							{
								OFFSET	0	179.8	-8.7
								CHANNELS 3  Xrotation Yrotation Zrotation
								End Site
								{
									OFFSET	1	0	0
								}
							}
						}
					}
					JOINT left_clavicle
					{
						OFFSET	-43.2	22.4	-70.8
						CHANNELS 3  Xrotation Yrotation Zrotation
						JOINT left_shoulder
						{
							OFFSET	-93.9	-5.79999	48.7
							CHANNELS 3  Xrotation Yrotation Zrotation
							JOINT left_elbow
							{
								OFFSET	-291.4	-30.8	15.2
								CHANNELS 3  Xrotation Yrotation Zrotation
								JOINT left_lowarm_twist
								{
									OFFSET	-110.7	-3.89999	13.6
									CHANNELS 3  Xrotation Yrotation Zrotation
									JOINT left_hand
									{
										OFFSET	-110.7	-3.89999	13.6
										CHANNELS 3  Xrotation Yrotation Zrotation
										JOINT left_ee
										{
											OFFSET	-80.8	-5.10001	12.1
											CHANNELS 3  Xrotation Yrotation Zrotation
											End Site
											{
												OFFSET	1	0	0
											}
										}
									}
								}
							}
						}
					}
					JOINT right_clavicle
					{
						OFFSET	43.2	22.4	-70.8
						CHANNELS 3  Xrotation Yrotation Zrotation
						JOINT right_shoulder
						{
							OFFSET	93.9	-5.79999	48.7
							CHANNELS 3  Xrotation Yrotation Zrotation
							JOINT right_elbow
							{
								OFFSET	291.4	-30.8	15.2
								CHANNELS 3  Xrotation Yrotation Zrotation
								JOINT right_lowarm_twist
								{
									OFFSET	110.7	-3.89999	13.6
									CHANNELS 3  Xrotation Yrotation Zrotation
									JOINT right_hand
									{
										OFFSET	110.7	-3.89999	13.6
										CHANNELS 3  Xrotation Yrotation Zrotation
										JOINT right_ee
										{
											OFFSET	80.8	-5.10001	12.1
											CHANNELS 3  Xrotation Yrotation Zrotation
											End Site
											{
												OFFSET	1	0	0
											}
										}
									}
								}
							}
						}
					}
				}
			}
		}
	}
	JOINT left_hip
	{
		OFFSET	-82.8	-127.5	0.300001
		CHANNELS 3  Xrotation Yrotation Zrotation
		JOINT left_knee
		{
			OFFSET	-28.2	-396.7	2.2
			CHANNELS 3  Xrotation Yrotation Zrotation
			JOINT left_ankle
			{
				OFFSET	-11.7	-411.3	35.4
				CHANNELS 3  Xrotation Yrotation Zrotation
				JOINT left_toes
				{
					OFFSET	0	-60	-88.6
					CHANNELS 3  Xrotation Yrotation Zrotation
					JOINT left_foot_ee
					{
						OFFSET	-22.5	-16.5	-42.2
						CHANNELS 3  Xrotation Yrotation Zrotation
						End Site
						{
							OFFSET	1	0	0
						}
					}
				}
			}
		}
	}
	JOINT right_hip
	{
		OFFSET	82.8	-127.5	0.300001
		CHANNELS 3  Xrotation Yrotation Zrotation
		JOINT right_knee
		{
			OFFSET	28.2	-396.7	2.2
			CHANNELS 3  Xrotation Yrotation Zrotation
			JOINT right_ankle
			{
				OFFSET	11.7	-411.3	35.4
				CHANNELS 3  Xrotation Yrotation Zrotation
				JOINT right_toes
				{
					OFFSET	0	-60	-88.6
					CHANNELS 3  Xrotation Yrotation Zrotation
					JOINT right_foot_ee
					{
						OFFSET	22.5	-16.5	-42.2
						CHANNELS 3  Xrotation Yrotation Zrotation
						End Site
						{
							OFFSET	1	0	0
						}
					}
				}
			}
		}
	}
}
MOTION
Frames: 7
Frame Time: 0.02
845.823287971 626.674 -1779.2707791 -5.09484122752 24.7902553215 6.15002421065 3.34372 -0.0215948 0.0546264 3.34372 -0.0250271 0.0531415 3.3437 -0.032853 0.0486935 3.34369 -0.0247505 0.0532709 -7.70728 2.25221 -1.45668 -7.70144 5.23379 -0.967852 -0.0 0.0 -0.0 -0.789735 4.94707 -0.86094 0.508224 -14.0893 62.6326 1.12133 -29.0501 0.290527 14.4609 0.281038 -1.82099 -0.868553 2.49913 -4.71228 -0.0 0.0 -0.0 8.52781 7.85733 -16.6879 -22.6394 18.9556 -63.7873 0.452966 12.6471 -0.0501967 12.5921 -0.270724 1.58252 0.368207 -24.5625 -11.898 0.0 0.0 0.0 21.6289 14.2877 -7.47797 -4.04359 0.145239 0.603444 -9.63329 30.0294 1.54124 -13.713 0.0 0.0 -0.0 0.0 -0.0 22.7479 47.3108 -12.5051 -35.7962 0.221206 -5.40084 41.1989 -10.982 4.98862 7.99505 -0.0 -0.0 0.0 0.0 0.0 
834.061599023 627.341 -1785.20565406 -5.43842600415 24.153539755 6.68602548542 3.36622 -0.081761 0.0885834 3.36622 -0.0872321 0.0832012 3.3661 -0.0988937 0.0689341 3.3661 -0.0867657 0.0836874 -8.72325 3.14777 -4.19672 -8.68035 8.81305 -3.41901 -0.0 0.0 -0.0 0.00433544 4.97071 0.599052 2.68967 -11.4713 58.3665 1.39215 -34.5895 0.433486 14.4433 0.280977 -1.81874 -0.718265 -1.91951 -5.63762 -0.0 0.0 -0.0 8.40829 6.30867 -16.4536 -23.8648 17.9698 -63.989 0.509599 14.168 -0.0633296 10.8725 -0.254367 1.3635 -0.394727 -16.4083 -4.26164 0.0 0.0 0.0 21.4158 14.5154 -7.92501 -6.07541 0.202041 0.910071 -2.53726 29.6132 0.400282 -15.1531 0.0 0.0 -0.0 0.0 -0.0 28.2778 49.6081 -13.7057 -33.1563 0.0897138 -5.01726 40.9265 -9.67121 4.95444 10.5975 -0.0 -0.0 0.0 0.0 0.0 
819.714483542 626.133 -1794.1872653 -5.82568143618 23.7656189159 6.7751359875 3.67053 0.00361452 0.136164 3.67054 -0.00505726 0.136118 3.67052 -0.0250329 0.133892 3.6705 -0.003573 0.136165 -9.22967 3.11961 -4.84986 -9.17526 9.1895 -4.02651 -0.0 0.0 -0.0 0.896604 6.30001 2.3666 3.90182 -8.66389 54.843 1.61231 -38.6112 0.564834 11.129 0.257224 -1.39614 -1.05986 -5.6165 -9.57201 -0.0 0.0 -0.0 7.78288 5.09323 -15.1578 -23.8196 16.329 -64.7234 0.468261 13.0597 -0.053599 12.1361 -0.267027 1.5244 -0.299352 -8.43393 -1.56946 0.0 0.0 0.0 16.737 13.7291 -5.13197 -7.59913 0.23748 1.14121 20.7687 22.499 -2.931 -15.5904 0.0 0.0 -0.0 0.0 -0.0 34.3135 47.0482 -16.114 -34.383 0.148612 -5.19624 38.1169 -13.3186 4.73816 10.5049 -0.0 -0.0 0.0 0.0 0.0 
820.833523283 626.133 -1796.37972599 -5.80068311663 23.200458179 6.71240218459 3.67053 0.00361452 0.136164 3.67054 -0.00505726 0.136118 3.67052 -0.0250329 0.133892 3.6705 -0.003573 0.136165 -9.22967 3.11961 -4.84986 -9.17526 9.1895 -4.02651 -0.0 0.0 -0.0 0.896604 6.30001 2.3666 3.90182 -8.66389 54.843 1.61231 -38.6112 0.564834 11.129 0.257224 -1.39614 -1.05986 -5.6165 -9.57201 -0.0 0.0 -0.0 7.78288 5.09323 -15.1578 -23.8196 16.329 -64.7234 0.468261 13.0597 -0.053599 12.1361 -0.267027 1.5244 -0.299352 -8.43393 -1.56946 0.0 0.0 0.0 16.737 13.7291 -5.13197 -7.59913 0.23748 1.14121 20.7687 22.499 -2.931 -15.5904 0.0 0.0 -0.0 0.0 -0.0 34.3135 47.0482 -16.114 -34.383 0.148612 -5.19624 38.1169 -13.3186 4.73816 10.5049 -0.0 -0.0 0.0 0.0 0.0 
798.845936861 622.916 -1821.07661345 -8.49773425699 22.8352765839 9.20563508444 4.33704 -0.0852964 0.339704 4.3371 -0.10674 0.333588 4.33644 -0.151007 0.316024 4.33631 -0.0992016 0.335906 -8.6004 3.82249 -5.93013 -8.50851 11.2886 -4.99438 -0.0 0.0 -0.0 1.83362 5.68556 4.0086 6.59424 -4.71389 50.044 1.79744 -41.678 0.684234 5.97156 0.171796 -0.743093 -0.351525 -12.9988 -7.91497 -0.0 0.0 -0.0 7.85591 7.75428 -15.267 -24.5724 15.6205 -68.5924 0.435766 12.1815 -0.046499 11.5991 -0.26208 1.45598 0.054356 -1.2765 -0.898774 0.0 0.0 0.0 13.3605 6.56055 -5.0509 -0.237178 0.00969362 0.0351064 31.9859 17.3911 -4.1796 -15.0957 0.0 0.0 -0.0 0.0 -0.0 42.3033 42.1419 -19.4477 -31.0128 -0.00394241 -4.70169 17.9749 -20.9566 2.54847 7.08543 -0.0 -0.0 0.0 0.0 0.0 
796.501626464 624.615 -1825.76284475 -8.84771026782 23.4828076416 9.33236199653 4.35743 0.00781704 0.469393 4.35755 -0.0220672 0.468939 4.35729 -0.0853092 0.461642 4.35699 -0.0113316 0.469321 -8.59552 4.16441 -6.12332 -8.49837 12.0626 -5.10942 -0.0 0.0 -0.0 1.91178 5.48535 4.13494 6.73428 -5.38846 49.9132 1.78725 -41.5163 0.677466 4.74738 0.142909 -0.589384 -0.201964 -13.1532 -6.96578 -0.0 0.0 -0.0 7.73922 7.50026 -15.0268 -24.294 15.3981 -69.4223 0.498484 13.871 -0.060637 11.1394 -0.257337 1.39746 0.153635 -1.29929 -1.56904 0.0 0.0 0.0 12.9193 5.14947 -4.66545 0.132261 -0.0054689 -0.0195598 32.3142 18.7303 -4.23574 -14.5343 0.0 0.0 -0.0 0.0 -0.0 42.6865 41.6496 -19.3621 -28.5272 -0.0976528 -4.33178 14.7835 -24.2465 2.15486 5.29296 -0.0 -0.0 0.0 0.0 0.0 
786.8031361 624.509 -1838.91274163 -9.21611702266 25.855618872 8.93810415747 4.31672 0.0467429 1.07361 4.31736 -0.0216643 1.07441 4.31652 -0.167597 1.06148 4.31495 0.0021364 1.07462 -8.83614 2.35531 -5.67793 -8.74957 8.35438 -5.05547 -0.0 0.0 -0.0 1.99721 5.78956 4.31417 5.48668 -5.26009 50.4211 1.92107 -43.576 0.767969 1.1641 0.0395589 -0.143412 0.326993 -12.7911 -3.23602 -0.0 0.0 -0.0 8.09356 7.62453 -15.7714 -22.1599 15.8012 -70.6814 0.651667 17.891 -0.10258 10.9366 -0.255095 1.37165 0.296637 -0.323022 -2.11578 0.0 0.0 0.0 11.2667 2.94436 -3.88555 0.152002 -0.0062887 -0.0224783 35.8466 20.0202 -4.62716 -13.2334 0.0 0.0 -0.0 0.0 -0.0 40.1365 44.0526 -18.8588 -23.2888 -0.242108 -3.54111 8.68455 -24.0541 1.29038 1.17502 -0.0 -0.0 0.0 0.0 0.0 
